<?xml version="1.0" standalone="no"?>
<!DOCTYPE svg PUBLIC "-//W3C//DTD SVG 20010904//EN"
 "http://www.w3.org/TR/2001/REC-SVG-20010904/DTD/svg10.dtd">
<svg version="1.0" xmlns="http://www.w3.org/2000/svg"
 width="709.000000pt" height="709.000000pt" viewBox="0 0 709.000000 709.000000"
 preserveAspectRatio="xMidYMid meet">
<metadata>
Created by potrace 1.11, written by Peter Selinger 2001-2013
</metadata>
<g transform="translate(0.000000,709.000000) scale(0.100000,-0.100000)"
fill="#000000" stroke="none">
<path d="M740 4625 c-7 -8 -17 -15 -22 -15 -17 0 -99 -84 -138 -142 -22 -31
-52 -94 -67 -140 -27 -81 -29 -83 -58 -80 -79 8 -104 5 -116 -12 -4 -5 -14 -6
-23 -3 -13 5 -16 26 -17 129 l-1 123 -22 -50 c-13 -27 -28 -74 -35 -103 -14
-69 -14 -240 1 -339 6 -43 11 -92 11 -110 -1 -30 -26 -80 -48 -95 -5 -4 -7 -8
-2 -8 4 0 -1 -17 -12 -37 -28 -57 -51 -172 -51 -260 0 -79 -5 -97 -27 -99 -33
-3 -35 -5 -28 -31 3 -15 8 -43 11 -62 6 -45 29 -123 46 -153 7 -13 13 -31 14
-41 2 -26 46 -117 56 -117 4 0 8 -7 8 -15 0 -8 5 -15 12 -15 6 0 9 -3 5 -6 -5
-6 16 -35 83 -116 8 -10 20 -18 27 -18 7 0 13 -7 13 -16 0 -8 5 -12 11 -9 6 4
13 -1 16 -11 6 -21 65 -67 128 -102 68 -37 179 -85 195 -84 8 0 22 -2 30 -6
48 -18 131 -27 255 -26 151 2 163 3 251 29 66 19 115 42 126 59 4 6 16 11 27
12 41 2 105 41 168 102 13 12 28 22 33 22 5 0 7 7 4 15 -4 8 -1 15 6 15 17 0
97 85 105 111 4 10 10 19 15 19 4 0 11 12 14 26 4 15 13 32 20 40 35 35 97
220 111 332 7 52 6 53 -13 43 -39 -21 -42 -14 -42 87 0 158 -22 256 -84 377
-11 22 -19 43 -18 48 1 4 -2 7 -7 7 -4 0 -21 19 -37 42 -46 68 -154 156 -223
184 -59 23 -59 13 -2 -25 27 -17 71 -55 97 -84 57 -63 139 -185 131 -193 -3
-4 0 -13 8 -20 21 -21 47 -149 52 -260 12 -224 -68 -436 -221 -588 -58 -57
-168 -126 -202 -126 -8 0 -14 -4 -14 -9 0 -23 -257 -67 -323 -54 -38 7 -38 43
1 43 56 0 101 21 144 66 24 25 64 54 90 66 43 18 89 60 114 103 5 10 26 26 45
37 41 22 84 66 93 96 4 12 11 20 16 17 4 -3 6 4 3 16 -4 14 5 31 31 58 23 23
42 56 52 91 9 30 25 65 36 77 14 15 24 47 32 105 10 75 11 98 7 176 -2 47 -17
18 -34 -69 -11 -57 -26 -104 -42 -127 -14 -20 -25 -46 -25 -57 0 -11 -14 -35
-30 -54 -37 -40 -60 -83 -60 -111 0 -21 -26 -52 -67 -79 -12 -8 -34 -37 -49
-64 -19 -36 -37 -54 -68 -68 -22 -10 -48 -19 -56 -19 -8 -1 -34 -25 -58 -54
-37 -47 -48 -54 -87 -59 -25 -4 -62 -18 -83 -32 -53 -35 -141 -48 -232 -35
-83 12 -114 26 -164 75 -56 54 -70 95 -69 201 0 80 3 94 22 113 11 11 24 21
27 21 4 0 34 12 68 27 115 51 257 165 393 316 37 41 125 195 142 249 17 51 28
213 18 240 -9 23 -9 22 -18 -7 -24 -78 -34 -104 -60 -160 -16 -33 -38 -72 -51
-87 -13 -15 -34 -41 -48 -59 -36 -47 -120 -135 -120 -127 0 4 -13 -5 -29 -20
-89 -84 -255 -177 -336 -189 -42 -5 -45 -4 -45 18 0 54 102 309 147 368 68 89
156 168 216 192 15 6 27 15 27 20 0 5 6 9 13 9 6 0 30 14 51 30 l39 30 -76 -6
c-66 -6 -77 -4 -83 10 -4 11 1 25 15 38 62 57 50 154 -24 194 -31 16 -69 16
-122 -1 -27 -9 -30 10 -10 65 14 40 76 152 88 160 4 3 4 11 0 18 -6 10 -11 10
-21 -3z"/>
<path d="M2832 4389 c-18 -4 -35 -9 -37 -11 -3 -2 -7 -35 -11 -74 -3 -38 -7
-73 -8 -79 0 -5 8 -8 19 -5 11 2 40 4 65 5 40 0 45 -3 54 -28 8 -22 7 -35 -5
-55 -13 -23 -22 -27 -57 -26 -47 1 -43 12 -46 -123 l-1 -47 44 -2 c50 -1 71
-21 71 -65 0 -77 -46 -105 -115 -71 -24 11 -45 19 -48 16 -2 -3 -2 -42 0 -87
5 -93 12 -103 80 -113 128 -19 197 46 207 197 6 82 -4 134 -34 172 l-20 25 26
46 c54 97 41 258 -25 305 -30 22 -107 31 -159 20z"/>
<path d="M2098 4382 l-78 -3 -1 -187 c0 -103 -1 -270 -2 -372 l-2 -185 108 -1
c124 -1 160 11 190 64 40 69 38 235 -4 294 -19 26 -19 31 -7 46 36 42 50 185
27 263 -23 77 -55 88 -231 81z"/>
<path d="M2486 4380 l-70 -5 -2 -175 c-1 -96 -5 -263 -8 -370 l-7 -196 58 -1
58 -1 2 157 c3 231 3 235 7 230 2 -2 6 -23 10 -47 7 -56 12 -62 46 -62 49 0
95 50 115 124 22 82 17 232 -10 288 -28 58 -65 68 -199 58z"/>
<path d="M4650 4350 c-5 -19 -11 -46 -13 -60 -2 -14 -6 -32 -9 -40 -6 -16 -47
-175 -52 -200 -2 -8 -5 -22 -8 -30 -11 -32 -39 -147 -45 -180 -3 -19 -10 -41
-15 -47 -6 -7 -8 -13 -5 -13 3 0 0 -21 -7 -47 -8 -27 -17 -60 -20 -74 l-6 -27
65 1 c63 2 65 3 74 32 6 16 12 45 15 63 20 114 18 112 93 112 l51 0 6 -37 c3
-21 9 -56 12 -78 4 -22 8 -47 9 -55 2 -8 4 -20 4 -27 1 -8 20 -11 60 -10 33 1
62 5 65 7 2 3 -6 61 -19 130 -12 69 -25 143 -28 165 -4 22 -11 65 -17 95 -6
30 -13 69 -15 85 -8 47 -26 155 -37 212 l-9 51 -70 4 -70 3 -9 -35z"/>
<path d="M4985 4380 c-3 -5 -15 -427 -19 -650 l-1 -95 58 -3 c48 -2 57 1 59
15 3 40 6 103 8 196 3 134 19 129 59 -20 18 -65 38 -134 44 -153 l13 -35 132
-1 c126 0 133 0 137 20 2 12 12 57 22 101 l18 80 54 3 c30 2 57 0 62 -5 4 -4
10 -28 14 -53 3 -25 8 -52 10 -60 2 -8 5 -31 7 -51 l2 -36 67 -1 c75 -2 70
-10 50 98 -6 30 -12 66 -15 80 -5 30 -23 133 -31 175 -3 17 -8 46 -11 65 -3
19 -7 42 -9 50 -3 8 -7 33 -10 55 -5 36 -11 71 -30 185 -3 19 -8 36 -10 38 -2
2 -35 5 -74 5 l-69 2 -5 -30 c-7 -43 -17 -88 -23 -105 -3 -8 -8 -24 -10 -35
-5 -29 -71 -284 -83 -322 -5 -18 -8 -33 -5 -33 3 0 0 -8 -5 -17 -5 -10 -12
-31 -15 -48 -16 -89 -30 -125 -42 -112 -6 5 -91 257 -98 287 -2 8 -7 24 -11
35 -9 19 -2 41 75 245 51 134 52 127 -16 132 -31 1 -62 -1 -69 -7 -9 -8 -26
-52 -52 -140 -11 -40 -52 -147 -57 -152 -3 -4 -6 62 -6 144 l0 151 -56 4 c-31
1 -57 1 -59 -2z"/>
<path d="M5852 4375 c-3 -5 -7 -100 -8 -210 -1 -110 -5 -275 -8 -367 l-7 -167
55 0 c31 0 58 4 60 8 3 4 6 83 7 174 2 131 5 167 16 167 7 0 13 -12 14 -27 0
-16 2 -35 4 -43 14 -57 33 -170 44 -271 1 -3 31 -6 67 -6 l65 0 -6 26 c-4 14
-9 36 -11 49 -11 59 -13 68 -18 82 -3 8 -8 29 -11 45 -9 47 -17 89 -20 105 -1
8 13 36 31 62 31 47 46 104 46 183 0 44 -21 133 -33 141 -5 3 -7 10 -4 15 4 5
-1 9 -9 9 -9 0 -16 4 -16 9 0 5 -10 13 -22 17 -33 12 -229 11 -236 -1z"/>
<path d="M6212 4375 c-4 -5 -7 -44 -8 -85 l-1 -75 56 -5 c52 -5 56 -7 54 -30
0 -14 -4 -133 -8 -265 -4 -132 -7 -242 -7 -245 -2 -34 3 -37 62 -38 l60 0 1
151 c1 84 3 177 4 207 1 30 3 92 5 138 l3 82 53 0 54 0 1 48 c2 98 1 113 -5
119 -10 11 -317 9 -324 -2z"/>
<path d="M6727 4382 c-9 -2 -20 -16 -23 -30 -20 -83 -93 -369 -98 -382 -3 -8
-8 -26 -10 -40 -9 -44 -61 -245 -67 -255 -17 -31 -4 -40 61 -40 l64 0 8 35 c4
19 10 46 12 60 3 14 9 39 15 57 5 17 7 34 4 37 -9 8 39 16 85 14 23 -2 42 -7
43 -13 0 -5 2 -17 4 -25 7 -25 15 -73 18 -110 5 -53 11 -58 77 -58 67 1 67 1
50 74 -5 23 -12 56 -14 75 -4 28 -25 146 -50 284 -3 17 -8 44 -10 60 -3 17 -7
41 -10 54 -3 12 -8 43 -11 68 -2 24 -7 48 -9 52 -3 4 -6 25 -7 47 l-3 39 -56
0 c-31 0 -64 -1 -73 -3z"/>
<path d="M3100 4295 l0 -85 55 0 55 0 -6 -217 c-3 -120 -7 -249 -8 -288 l-1
-70 61 -1 60 0 3 200 c4 374 5 376 21 377 8 0 34 0 56 -1 l41 -1 2 85 2 86
-171 0 -170 0 0 -85z"/>
<path d="M3479 4248 c-1 -132 -3 -205 -10 -473 l-4 -140 40 -2 c55 -2 86 5 84
20 -1 7 -1 79 0 160 1 109 4 148 13 145 6 -2 32 -77 57 -165 l45 -161 68 1
c45 0 68 4 68 12 0 6 -12 45 -26 86 -14 41 -27 79 -28 84 -1 6 -17 56 -35 112
l-33 102 61 162 c33 89 61 168 61 175 0 10 -17 14 -65 14 -62 0 -65 -1 -71
-27 -4 -16 -9 -32 -13 -38 -3 -5 -22 -59 -41 -118 -20 -60 -40 -109 -44 -110
-7 -2 -8 80 -2 248 l1 40 -62 3 -63 3 -1 -133z"/>
<path d="M3902 4213 c-1 -162 -12 -513 -17 -558 -2 -21 2 -22 62 -22 l63 0 0
61 c2 160 10 530 14 604 l5 82 -63 0 -63 0 -1 -167z"/>
<path d="M4339 4268 c-2 -223 -11 -387 -25 -436 -8 -29 -45 -37 -82 -18 -40
21 -51 20 -46 -1 2 -10 5 -51 7 -92 l2 -74 40 -14 c85 -30 151 -8 185 61 22
47 25 80 35 459 l6 227 -60 0 -61 0 -1 -112z"/>
<path d="M2017 3445 c-2 -5 -5 -85 -6 -177 l-2 -168 40 0 c57 0 70 8 77 46 8
41 24 45 24 6 0 -47 19 -62 67 -55 l42 6 0 114 c0 131 -7 153 -49 153 -33 0
-40 -8 -45 -50 -4 -32 3 -38 23 -18 8 8 15 9 22 2 7 -7 -1 -22 -25 -47 -19
-20 -35 -43 -35 -52 0 -8 -4 -15 -9 -15 -8 0 -22 65 -20 95 0 6 2 39 5 75 2
36 0 72 -5 80 -12 17 -98 22 -104 5z"/>
<path d="M2293 3453 c-8 -3 -12 -50 -12 -157 -1 -84 -3 -162 -6 -174 -3 -18 1
-22 21 -22 23 0 24 2 25 78 0 42 2 121 4 174 3 96 -2 112 -32 101z"/>
<path d="M2472 3429 c2 -22 9 -33 21 -35 9 -1 18 4 18 12 1 8 2 22 3 32 1 11
-7 18 -22 20 -21 3 -23 0 -20 -29z"/>
<path d="M2596 3451 c-2 -3 -4 -84 -5 -178 -2 -168 -1 -173 19 -173 18 0 20 6
20 69 0 66 1 68 23 64 19 -4 26 1 36 24 18 43 19 155 1 183 -9 14 -87 23 -94
11z"/>
<path d="M2854 3452 c-5 -4 -10 -52 -11 -107 0 -55 -2 -125 -3 -155 -3 -86 -2
-90 20 -90 17 0 20 7 21 48 1 26 3 104 5 174 2 97 0 127 -10 131 -7 3 -17 2
-22 -1z"/>
<path d="M3745 3446 c-2 -6 -5 -86 -7 -179 l-3 -167 23 0 c21 0 22 4 22 68 0
64 1 69 22 68 32 -1 48 37 48 115 0 80 -14 103 -65 105 -20 1 -38 -3 -40 -10z"/>
<path d="M5113 3443 c-3 -8 -6 -87 -7 -176 l-1 -162 47 -3 c40 -3 49 0 62 21
35 53 40 246 7 302 -15 26 -23 30 -60 31 -27 0 -45 -5 -48 -13z"/>
<path d="M5586 3450 c-2 -3 -4 -82 -5 -176 -2 -165 -1 -172 19 -177 19 -5 20
-1 20 68 0 70 1 72 23 68 32 -6 51 41 50 124 0 78 -18 103 -70 100 -19 -1 -36
-4 -37 -7z"/>
<path d="M5929 3450 c-1 -3 -2 -48 -4 -100 -2 -52 -4 -122 -5 -155 -3 -91 -2
-95 20 -95 17 0 20 7 21 43 0 23 3 103 5 177 4 131 3 136 -16 136 -11 0 -21
-3 -21 -6z"/>
<path d="M5990 3432 c0 -34 7 -43 26 -35 8 3 14 18 14 34 0 22 -5 29 -20 29
-15 0 -20 -7 -20 -28z"/>
<path d="M6279 3453 c-12 -3 -15 -14 -13 -43 3 -36 0 -40 -20 -40 -37 0 -51
-41 -51 -151 0 -79 3 -102 17 -115 11 -11 23 -14 35 -9 10 5 26 7 36 6 9 -1
17 4 17 11 1 7 3 86 5 175 3 89 1 164 -3 166 -4 2 -14 2 -23 0z"/>
<path d="M4722 3418 c-7 -7 -12 -22 -12 -35 0 -13 -4 -23 -10 -23 -12 0 -14
-67 -2 -74 5 -3 8 -38 6 -78 -2 -90 8 -121 39 -116 18 2 23 10 25 46 2 29 0
42 -7 37 -17 -10 -14 103 3 120 14 15 10 65 -5 65 -5 0 -9 16 -9 35 0 37 -8
43 -28 23z"/>
<path d="M2364 3358 c-10 -15 -13 -68 -5 -68 4 0 12 5 19 12 9 9 15 9 23 1 8
-8 1 -20 -25 -44 -32 -29 -36 -37 -36 -84 0 -70 14 -86 68 -78 l42 6 0 114 c0
63 -5 123 -10 134 -12 21 -64 27 -76 7z"/>
<path d="M2477 3363 c-3 -4 -6 -59 -6 -121 -1 -63 -3 -119 -4 -125 -1 -6 8
-13 21 -15 22 -3 22 -2 22 122 0 69 0 129 1 134 0 10 -28 15 -34 5z"/>
<path d="M2735 3341 c-31 -60 -23 -212 12 -238 28 -22 63 -16 64 10 0 12 2 32
5 45 4 23 -10 30 -21 12 -10 -16 -35 8 -35 31 0 15 7 19 36 19 l36 0 -6 55
c-6 70 -20 95 -51 95 -17 0 -29 -9 -40 -29z"/>
<path d="M2933 3363 c-7 -2 -13 -20 -13 -39 0 -31 2 -34 19 -24 26 13 31 13
31 -5 0 -8 -11 -21 -23 -30 -33 -21 -45 -53 -43 -108 2 -53 16 -73 43 -62 10
4 28 7 41 6 20 -2 22 2 23 56 3 130 2 180 -4 196 -6 16 -46 22 -74 10z"/>
<path d="M3034 3303 c4 -38 8 -79 11 -93 19 -110 15 -166 -11 -156 -12 4 -14
-3 -12 -34 2 -40 16 -54 43 -44 19 8 31 53 52 199 3 22 11 73 18 113 11 63 10
74 -2 79 -22 9 -31 -7 -38 -67 -4 -30 -8 -56 -10 -58 -2 -2 -6 26 -10 62 -6
57 -10 66 -27 66 -19 0 -19 -5 -14 -67z"/>
<path d="M3175 3360 c-10 -16 -15 -70 -7 -70 5 0 13 5 20 12 8 8 15 9 22 2 7
-7 -1 -22 -25 -47 -30 -31 -35 -43 -35 -85 0 -67 14 -83 67 -75 l42 6 0 114
c0 64 -4 124 -10 134 -11 21 -63 27 -74 9z"/>
<path d="M3281 3241 c-1 -68 -4 -128 -7 -133 -3 -4 6 -8 20 -8 25 0 26 2 27
65 1 36 3 70 4 75 1 6 3 17 4 25 0 8 6 15 11 15 6 0 10 -37 10 -90 0 -83 1
-90 20 -90 16 0 20 7 21 33 0 17 2 65 4 105 2 40 0 85 -4 100 -7 25 -12 27
-58 28 l-50 0 -2 -125z"/>
<path d="M3443 3363 c-7 -2 -13 -20 -13 -39 0 -31 2 -34 19 -24 26 13 31 13
31 -5 0 -8 -11 -21 -23 -30 -13 -8 -29 -26 -35 -39 -14 -30 -8 -116 9 -127 18
-11 39 -11 39 -1 0 4 25 7 55 5 l55 -2 1 32 c2 74 9 131 19 141 10 10 14 -48
10 -136 -1 -32 2 -38 19 -38 12 0 21 1 22 3 0 1 3 53 5 114 6 138 1 151 -61
151 -25 -1 -45 -4 -46 -7 -2 -9 -7 -137 -8 -193 -1 -27 -6 -48 -11 -48 -7 0
-9 36 -7 103 4 118 -4 147 -42 146 -14 0 -32 -3 -38 -6z"/>
<path d="M3884 3349 c-15 -17 -18 -37 -19 -119 0 -89 2 -102 22 -121 16 -16
28 -20 47 -15 22 5 26 12 26 45 0 35 -2 39 -21 34 -12 -4 -25 0 -30 8 -17 27
-9 39 26 39 l35 0 0 53 c0 85 -43 123 -86 76z"/>
<path d="M3996 3361 c-2 -3 -5 -57 -5 -119 -1 -63 -3 -119 -4 -125 -1 -6 8
-13 21 -15 21 -3 22 0 23 62 1 36 3 71 4 76 1 6 3 17 4 25 0 8 6 15 11 15 6 0
10 -37 10 -90 0 -83 1 -90 20 -90 22 0 21 -5 25 145 3 114 -2 123 -60 123 -25
-1 -47 -4 -49 -7z"/>
<path d="M4144 3345 c-21 -33 -30 -147 -15 -202 9 -32 18 -44 36 -49 41 -10
55 1 55 46 0 37 -2 40 -20 30 -15 -8 -21 -6 -30 10 -15 27 -5 40 31 40 28 0
29 2 29 44 0 66 -17 106 -46 106 -14 0 -30 -10 -40 -25z"/>
<path d="M4250 3233 c0 -126 1 -133 20 -133 17 0 20 7 22 43 0 23 2 51 3 62 1
11 3 34 4 50 1 21 4 26 10 16 5 -7 7 -49 5 -92 -4 -77 -4 -79 19 -79 21 0 22
4 22 69 0 77 11 141 15 86 1 -16 1 -58 1 -93 -2 -61 -1 -63 21 -60 22 3 23 7
26 124 3 103 1 122 -13 134 -13 11 -21 11 -35 2 -11 -6 -22 -8 -25 -3 -3 5
-25 9 -50 9 l-45 -1 0 -134z"/>
<path d="M4446 3358 c-3 -7 -7 -95 -10 -195 l-6 -183 22 0 c21 0 23 5 23 58 1
49 3 57 19 54 26 -5 45 15 52 54 7 39 24 47 20 9 -4 -29 19 -65 40 -65 8 0 14
4 14 8 0 5 13 7 28 4 l28 -4 -1 124 c0 67 -4 129 -8 136 -5 6 -21 12 -36 12
-33 0 -47 -14 -49 -52 -2 -28 11 -37 23 -18 3 6 10 10 16 10 18 0 8 -27 -21
-55 -16 -16 -30 -35 -30 -42 0 -7 -3 -13 -7 -13 -5 0 -9 25 -10 55 -3 81 -20
109 -66 113 -24 2 -39 -1 -41 -10z"/>
<path d="M4814 3362 c-12 -8 -25 -72 -14 -72 3 0 11 5 18 12 9 9 15 9 24 0 9
-9 5 -18 -22 -41 -33 -27 -35 -33 -35 -89 0 -34 5 -65 10 -71 6 -5 29 -7 53
-4 l42 6 0 121 c0 82 -4 126 -12 134 -13 13 -47 16 -64 4z"/>
<path d="M4909 3251 c0 -64 -2 -124 -4 -133 -2 -13 3 -18 21 -18 23 0 24 3 25
65 1 36 3 70 4 75 1 6 3 17 4 26 0 8 6 12 11 9 6 -3 10 -44 10 -91 0 -77 2
-84 20 -84 15 0 20 7 21 28 6 151 6 187 0 210 -7 25 -12 27 -59 28 l-52 1 -1
-116z"/>
<path d="M5282 3358 c-14 -14 -16 -68 -3 -68 6 0 13 5 16 10 9 15 25 12 25 -4
0 -8 -11 -23 -26 -33 -45 -33 -52 -142 -10 -167 13 -8 20 -8 23 0 2 6 16 9 31
6 l28 -4 0 124 c-1 67 -5 129 -9 136 -10 15 -59 16 -75 0z"/>
<path d="M5389 3277 c0 -51 -2 -111 -4 -134 -3 -39 -2 -43 20 -43 22 0 23 4
24 64 0 36 3 76 7 90 11 47 24 16 23 -57 -1 -98 -2 -97 21 -97 17 0 20 7 21
53 0 28 2 77 3 107 1 30 -2 67 -7 82 -8 24 -13 27 -58 26 l-49 0 -1 -91z"/>
<path d="M5732 3357 c-19 -23 -33 -106 -27 -165 7 -69 27 -102 61 -102 26 0
30 6 38 58 4 32 -2 40 -20 22 -12 -12 -31 0 -36 25 -2 16 3 21 27 23 16 2 33
8 36 14 9 14 2 76 -12 110 -12 30 -48 38 -67 15z"/>
<path d="M5830 3235 c0 -128 1 -135 20 -135 18 0 20 7 21 60 1 33 3 65 4 70 1
6 3 19 4 30 0 11 8 20 17 20 12 0 14 9 12 42 -3 41 -4 43 -40 46 l-38 2 0
-135z"/>
<path d="M5989 3268 c-1 -57 -3 -118 -5 -135 -3 -29 -1 -33 20 -33 l24 0 1
135 c2 129 1 135 -19 135 -19 0 -20 -6 -21 -102z"/>
<path d="M6059 3323 c0 -27 -2 -87 -4 -135 -3 -85 -3 -88 18 -88 21 0 22 6 25
83 2 45 7 86 13 92 11 11 12 4 13 -95 1 -69 3 -75 22 -78 21 -3 22 1 23 118 1
81 -2 127 -10 136 -14 17 -46 18 -52 2 -4 -10 -6 -10 -6 0 -1 6 -10 12 -21 12
-17 0 -20 -7 -21 -47z"/>
<path d="M6330 3245 c0 -132 10 -165 46 -150 10 4 29 7 42 6 21 -2 22 0 23
101 1 57 2 117 3 133 1 25 -3 30 -21 31 -20 1 -23 -4 -24 -40 -1 -47 -5 -126
-8 -141 -1 -5 -6 -3 -11 7 -6 9 -8 47 -6 85 5 75 0 90 -26 90 -16 0 -18 -13
-18 -122z"/>
<path d="M6469 3321 c-1 -25 -3 -85 -4 -133 -3 -84 -2 -88 19 -88 20 0 21 6
24 82 2 46 7 87 12 92 11 11 12 10 15 -84 3 -92 3 -90 26 -90 15 0 20 6 19 23
-5 51 1 130 8 123 7 -7 8 -21 11 -88 1 -38 37 -74 57 -57 11 9 14 8 14 -9 0
-26 -22 -43 -40 -32 -22 14 -28 3 -23 -37 3 -21 6 -39 7 -40 1 -2 18 -4 36 -5
51 -4 58 19 62 214 5 180 5 178 -48 178 -27 0 -51 -30 -60 -78 -8 -42 -24 -41
-24 1 0 68 -7 76 -61 75 l-49 -1 -1 -46z"/>
<path d="M6757 3363 c-5 -8 -10 -51 -8 -67 1 -5 8 -3 16 4 12 10 19 10 27 2 9
-9 4 -19 -22 -41 -33 -27 -35 -33 -35 -89 0 -34 5 -65 10 -71 6 -5 29 -7 53
-4 l42 6 0 121 c0 82 -4 126 -12 134 -13 13 -64 16 -71 5z"/>
<path d="M6869 3365 c0 0 -3 -60 -5 -132 -5 -129 -5 -133 15 -133 17 0 21 6
22 38 1 67 9 126 19 136 11 11 12 4 10 -102 -1 -72 -1 -73 22 -70 22 3 23 6
26 115 4 139 -2 153 -63 150 -25 -1 -45 -2 -46 -2z"/>
<path d="M3199 2982 c0 -4 -2 -19 -4 -34 -3 -24 0 -28 19 -28 18 0 23 6 24 29
0 21 -5 30 -19 34 -10 3 -19 2 -20 -1z"/>
<path d="M4287 2982 c-2 -4 -4 -19 -5 -34 -1 -23 2 -28 22 -28 21 0 24 4 22
32 -2 20 -8 32 -19 34 -9 1 -18 -1 -20 -4z"/>
<path d="M1990 2933 c0 -36 3 -43 18 -41 15 3 17 -9 16 -134 l-1 -138 24 0
c22 0 23 4 24 63 4 206 6 221 33 211 9 -3 13 7 13 39 l1 45 -64 0 -64 0 0 -45z"/>
<path d="M2835 2968 c-3 -7 -7 -88 -9 -180 l-5 -168 25 0 c23 0 24 3 24 60 0
33 4 60 9 60 4 0 14 -27 20 -60 11 -56 14 -60 40 -60 l27 0 -24 95 -24 96 21
68 c27 89 27 103 -1 99 -17 -2 -26 -15 -38 -56 -18 -64 -26 -61 -24 8 2 44 0
50 -17 50 -11 0 -22 -6 -24 -12z"/>
<path d="M3439 2861 c0 -64 -1 -143 -2 -176 -2 -55 0 -60 21 -63 12 -2 22 0
23 5 1 4 3 85 5 179 l4 172 -25 0 -25 0 -1 -117z"/>
<path d="M3720 2934 c0 -36 -3 -45 -14 -41 -38 15 -67 -78 -60 -187 5 -66 30
-106 55 -90 8 5 23 8 34 9 18 0 20 8 22 90 1 50 4 129 6 178 4 86 3 87 -20 87
-21 0 -23 -4 -23 -46z"/>
<path d="M4684 2968 c-5 -7 -9 -65 -9 -129 -1 -63 -5 -121 -9 -128 -4 -6 -16
-9 -27 -6 -17 6 -19 1 -19 -35 0 -34 4 -42 26 -50 34 -13 61 2 68 37 3 16 7
93 8 173 3 128 1 145 -14 148 -9 2 -20 -3 -24 -10z"/>
<path d="M4869 2841 c-1 -75 -2 -154 -3 -176 -1 -35 2 -40 22 -43 20 -3 23 0
22 25 -5 64 2 78 14 28 9 -39 17 -51 34 -53 26 -4 27 2 7 84 -12 53 -12 68 0
115 19 69 19 69 -6 69 -12 0 -23 -8 -26 -20 -11 -43 -24 -17 -21 43 3 58 2 62
-19 63 -23 1 -23 0 -24 -135z"/>
<path d="M5234 2942 c-6 -4 -10 -17 -9 -29 2 -24 -24 -41 -35 -22 -5 7 -10 7
-14 1 -3 -5 -17 -7 -31 -4 -24 4 -31 -8 -26 -40 3 -20 -18 -5 -23 16 -12 48
-81 38 -88 -14 -5 -31 5 -49 17 -30 8 12 35 13 35 1 0 -5 -16 -25 -35 -44 -28
-28 -35 -43 -35 -73 0 -72 22 -106 53 -87 7 4 22 6 35 4 21 -2 22 1 22 63 0
37 4 66 10 66 5 0 9 -27 7 -62 -2 -59 0 -63 21 -66 21 -3 22 -1 22 75 0 86 4
97 38 107 23 8 23 7 19 -75 -3 -70 -1 -85 15 -101 23 -23 39 -23 45 2 7 25 11
25 32 -2 12 -14 22 -18 32 -12 8 4 24 7 37 5 24 -3 24 -7 25 168 1 94 -12 115
-61 102 -23 -6 -28 -14 -30 -47 -3 -31 -1 -37 9 -26 7 6 19 12 26 12 23 0 14
-25 -16 -48 -18 -13 -31 -34 -35 -56 -5 -25 -11 -34 -21 -29 -19 7 -21 109 -2
116 14 4 16 59 2 69 -5 4 -9 19 -10 34 0 29 -12 39 -31 26z"/>
<path d="M2151 2878 c-23 -24 -30 -62 -27 -155 2 -76 21 -114 54 -108 9 2 23
4 30 4 7 1 12 16 12 42 0 37 -2 40 -21 34 -14 -5 -25 -2 -30 6 -17 27 -9 39
26 39 19 0 35 5 35 10 0 6 4 10 10 10 6 0 9 -28 7 -67 -2 -64 -1 -68 21 -71
21 -3 22 0 23 72 2 95 2 96 14 96 10 0 13 -17 14 -112 1 -51 3 -58 21 -58 18
0 20 7 21 73 1 39 2 88 4 107 3 44 -20 104 -36 94 -7 -4 -27 -7 -46 -6 l-33 1
0 -49 c0 -28 -4 -50 -10 -50 -5 0 -10 11 -10 25 0 64 -45 100 -79 63z"/>
<path d="M2424 2889 c-14 -5 -23 -19 -26 -39 -5 -31 5 -49 17 -30 8 13 35 13
35 0 0 -6 -16 -24 -35 -41 -30 -26 -35 -38 -35 -73 0 -74 21 -109 53 -89 7 4
22 6 35 4 21 -2 22 1 22 63 0 71 14 92 17 27 1 -21 7 -51 13 -66 8 -22 15 -26
35 -23 27 6 31 -3 15 -33 -9 -15 -15 -17 -30 -9 -24 13 -29 4 -23 -38 8 -53
75 -65 93 -18 4 12 10 98 11 191 l4 169 -25 6 c-41 11 -70 -9 -83 -57 -14 -53
-27 -56 -27 -5 0 56 -23 77 -66 61z"/>
<path d="M2684 2889 c-14 -5 -23 -19 -26 -39 -5 -31 5 -49 17 -30 8 12 35 13
35 1 0 -5 -16 -25 -35 -44 -28 -28 -35 -43 -35 -73 0 -72 22 -106 53 -87 7 4
22 6 35 4 22 -2 22 -1 22 121 0 68 -4 128 -8 134 -11 17 -35 22 -58 13z"/>
<path d="M3000 2873 c-11 -14 -20 -33 -21 -42 -1 -9 -2 -36 -4 -61 -5 -66 5
-120 27 -142 34 -34 62 -20 71 35 5 35 4 37 -18 31 -17 -4 -26 0 -34 14 -16
29 -15 30 27 34 l37 3 -3 54 c-3 62 -14 86 -42 94 -14 3 -26 -3 -40 -20z"/>
<path d="M3300 2891 c-21 -6 -26 -14 -28 -46 -3 -32 -1 -38 9 -27 7 6 19 12
26 12 23 0 14 -23 -19 -50 -29 -24 -32 -32 -32 -83 -1 -60 20 -97 45 -81 8 4
24 8 37 8 24 1 24 3 26 111 1 61 0 118 -2 128 -6 24 -32 35 -62 28z"/>
<path d="M3571 2891 c-7 -4 -23 -6 -37 -3 l-24 4 0 -126 c0 -69 0 -129 0 -133
-1 -5 8 -9 20 -11 18 -3 20 2 20 56 0 33 3 74 6 91 12 60 24 30 24 -59 0 -83
1 -90 20 -90 15 0 20 7 21 28 1 15 3 54 5 87 7 117 -15 180 -55 156z"/>
<path d="M3828 2893 c-27 -7 -48 -65 -48 -136 0 -107 32 -163 80 -137 27 14
38 61 36 150 -2 95 -23 133 -68 123z"/>
<path d="M3975 2890 c-2 -4 -16 -5 -30 -2 l-25 4 -1 -93 c0 -52 -2 -113 -4
-136 -3 -39 -1 -43 19 -43 20 0 22 5 24 73 3 79 9 107 23 107 5 0 9 -40 9 -90
0 -83 1 -90 20 -90 18 0 20 7 21 80 1 44 2 90 2 103 2 46 -12 84 -32 90 -12 3
-23 2 -26 -3z"/>
<path d="M4095 2890 c-29 -11 -44 -69 -42 -160 2 -87 21 -123 61 -115 11 2 24
4 29 4 4 1 7 19 7 42 0 37 -2 40 -21 34 -14 -5 -25 -2 -30 6 -17 27 -9 38 29
41 37 3 37 3 34 43 -4 53 -20 102 -35 108 -7 2 -21 1 -32 -3z"/>
<path d="M4199 2879 c-25 -25 -25 -81 1 -136 19 -43 15 -58 -15 -47 -13 5 -15
0 -12 -31 4 -43 27 -61 56 -46 35 19 37 98 5 163 -14 27 -5 46 16 33 6 -4 9 9
8 34 -2 47 -28 61 -59 30z"/>
<path d="M4395 2892 c-29 -6 -38 -17 -42 -52 -3 -32 5 -38 25 -18 8 8 15 9 22
2 6 -6 -2 -21 -25 -43 -31 -29 -35 -38 -35 -84 0 -29 4 -58 9 -66 10 -15 41
-24 41 -12 0 4 13 6 29 3 l30 -4 0 124 c1 107 -2 127 -17 140 -9 8 -26 13 -37
10z"/>
<path d="M4785 2889 c-26 -7 -30 -14 -32 -44 -2 -36 5 -43 24 -24 6 6 17 8 24
3 9 -5 4 -14 -18 -33 -17 -14 -35 -42 -40 -61 -15 -57 6 -119 40 -120 4 0 7 4
7 8 0 5 13 7 29 4 l30 -4 0 125 c0 143 -9 161 -64 146z"/>
<path d="M3100 2754 c0 -127 1 -134 20 -134 18 0 20 7 22 63 0 34 2 67 3 72 2
6 3 18 4 28 0 9 7 17 15 17 10 0 14 13 13 44 l-1 44 -38 0 -38 1 0 -135z"/>
<path d="M3193 2758 c-2 -147 -7 -182 -27 -175 -10 4 -12 -5 -9 -36 5 -46 15
-57 44 -50 26 7 28 22 32 221 4 169 4 172 -17 172 -20 0 -21 -5 -23 -132z"/>
<path d="M4281 2770 c-1 -66 -2 -126 -4 -132 -1 -7 8 -14 21 -16 22 -3 22 -2
23 115 0 65 2 126 4 136 2 12 -3 17 -20 17 -23 0 -24 -1 -24 -120z"/>
<path d="M4518 2793 c-2 -5 -5 -23 -7 -40 -2 -31 0 -33 28 -33 29 0 31 2 31
40 0 36 -3 40 -24 40 -14 0 -26 -3 -28 -7z"/>
</g>
</svg>
